# xmcd CD database file
#
# Track frame offsets:
#	150
#	13232
#	23227
#	31480
#	42247
#	52367
#	66030
#	79850
#	93505
#	105307
#	117330
#	129722
#	141500
#	152577
#	165450
#	175497
#	186642
#	196542
#
# Disc length: 2776 seconds
#
# Revision: 3
# Processed by: cddbd v1.5.2PL0 Copyright (c) Steve Scherf et al.
# Submitted via: CDex 1.81
#
DISCID=fe0ad612
DTITLE=Various Artist - Selection of Country CD 1
DYEAR=1996
DGENRE=Country
TTITLE0=Kenny Rogers - Ruby Don't Take Your Love To Town
TTITLE1=Johnny Cash - Hey Porter
TTITLE2=Willie Nelson - Things To Remember
TTITLE3=Patsy Cline - I Can See An Angel
TTITLE4=Dave Dudley - Oh Lonesome Me
TTITLE5=Lynn Anderson - Rose Garden
TTITLE6=Patti Page - Tennessee Waltz
TTITLE7=Carl Perkins - Every Road
TTITLE8=Freddy Fender - Before The Next Teardrop Falls
TTITLE9=Ray Charles - Together Again
TTITLE10=Nancy Sinatra - These Boots Are Made For Walking
TTITLE11=Frankie Lane - Mule Train
TTITLE12=Guy Mitchell - Singin' The Blues
TTITLE13=Faron Young - I'm A Free Man Now
TTITLE14=Hank Locklin - Please Help Me I'm Fallin'
TTITLE15=Rick Nelson - Bright Lights And Country Music
TTITLE16=Dolly Parton - Release Me
TTITLE17=Tammy Wynette - Stand By Your Man
EXTD=YEAR: 1996
EXTT0=
EXTT1=
EXTT2=
EXTT3=
EXTT4=
EXTT5=
EXTT6=
EXTT7=
EXTT8=
EXTT9=
EXTT10=
EXTT11=
EXTT12=
EXTT13=
EXTT14=
EXTT15=
EXTT16=
EXTT17=
PLAYORDER=
